<svg width="71" height="68" viewBox="0 0 71 68" fill="none" xmlns="http://www.w3.org/2000/svg">
<ellipse cx="35.5" cy="33.5548" rx="35.5" ry="33.5548" fill="#40484A"/>
<path d="M30.05 20.6372H41.95C46.4833 20.6372 50.1666 24.1187 50.1666 28.4036V39.6516C50.1666 41.7114 49.301 43.6868 47.76 45.1433C46.2191 46.5998 44.1292 47.418 41.95 47.418H30.05C25.5166 47.418 21.8333 43.9365 21.8333 39.6516V28.4036C21.8333 26.3439 22.699 24.3684 24.2399 22.9119C25.7808 21.4555 27.8708 20.6372 30.05 20.6372ZM29.7666 23.3153C28.414 23.3153 27.1168 23.8232 26.1604 24.7272C25.204 25.6312 24.6666 26.8573 24.6666 28.1358V39.9194C24.6666 42.5841 26.9475 44.7399 29.7666 44.7399H42.2333C43.5859 44.7399 44.8831 44.2321 45.8396 43.328C46.796 42.424 47.3333 41.1979 47.3333 39.9194V28.1358C47.3333 25.4711 45.0525 23.3153 42.2333 23.3153H29.7666ZM43.4375 25.3239C43.9071 25.3239 44.3576 25.5002 44.6897 25.8141C45.0217 26.128 45.2083 26.5537 45.2083 26.9977C45.2083 27.4416 45.0217 27.8673 44.6897 28.1812C44.3576 28.4951 43.9071 28.6715 43.4375 28.6715C42.9678 28.6715 42.5174 28.4951 42.1853 28.1812C41.8532 27.8673 41.6666 27.4416 41.6666 26.9977C41.6666 26.5537 41.8532 26.128 42.1853 25.8141C42.5174 25.5002 42.9678 25.3239 43.4375 25.3239ZM36 27.3324C37.8786 27.3324 39.6803 28.0378 41.0087 29.2934C42.337 30.549 43.0833 32.2519 43.0833 34.0276C43.0833 35.8033 42.337 37.5062 41.0087 38.7618C39.6803 40.0174 37.8786 40.7228 36 40.7228C34.1214 40.7228 32.3197 40.0174 30.9913 38.7618C29.6629 37.5062 28.9166 35.8033 28.9166 34.0276C28.9166 32.2519 29.6629 30.549 30.9913 29.2934C32.3197 28.0378 34.1214 27.3324 36 27.3324ZM36 30.0105C34.8728 30.0105 33.7918 30.4337 32.9948 31.1871C32.1977 31.9404 31.75 32.9622 31.75 34.0276C31.75 35.093 32.1977 36.1148 32.9948 36.8682C33.7918 37.6215 34.8728 38.0447 36 38.0447C37.1272 38.0447 38.2082 37.6215 39.0052 36.8682C39.8022 36.1148 40.25 35.093 40.25 34.0276C40.25 32.9622 39.8022 31.9404 39.0052 31.1871C38.2082 30.4337 37.1272 30.0105 36 30.0105Z" fill="#F8F8F8"/>
</svg>
