<svg width="71" height="68" viewBox="0 0 71 68" fill="none" xmlns="http://www.w3.org/2000/svg">
<ellipse cx="35.5" cy="33.5548" rx="35.5" ry="33.5548" fill="#40484A"/>
<path d="M45.9875 24.5339C44.6887 23.2938 43.1417 22.3106 41.4367 21.6416C39.7316 20.9726 37.9028 20.6312 36.0567 20.6373C28.3217 20.6373 22.0175 26.596 22.0175 33.9072C22.0175 36.2505 22.6692 38.5269 23.8875 40.5354L21.9042 47.4181L29.3417 45.5702C31.3958 46.6281 33.705 47.1905 36.0567 47.1905C43.7917 47.1905 50.0958 41.2317 50.0958 33.9206C50.0958 30.3721 48.6367 27.0379 45.9875 24.5339ZM36.0567 44.9409C33.96 44.9409 31.9058 44.4053 30.1067 43.401L29.6817 43.16L25.2617 44.258L26.4375 40.1873L26.1542 39.7722C24.9893 38.014 24.3708 35.9817 24.3692 33.9072C24.3692 27.8279 29.6108 22.8735 36.0425 22.8735C39.1592 22.8735 42.0917 24.0251 44.2875 26.114C45.3748 27.1369 46.2364 28.3537 46.8225 29.6938C47.4086 31.0339 47.7074 32.4705 47.7017 33.9206C47.73 39.9998 42.4883 44.9409 36.0567 44.9409ZM42.46 36.6924C42.1058 36.5317 40.3775 35.7283 40.0658 35.6078C39.74 35.5006 39.5133 35.4471 39.2725 35.7685C39.0317 36.1032 38.3658 36.8531 38.1675 37.0673C37.9692 37.295 37.7567 37.3217 37.4025 37.1477C37.0483 36.987 35.915 36.6254 34.5833 35.5006C33.535 34.6169 32.8408 33.5323 32.6283 33.1975C32.43 32.8627 32.6 32.6887 32.7842 32.5146C32.94 32.3673 33.1383 32.1263 33.3083 31.9388C33.4783 31.7513 33.5492 31.604 33.6625 31.3898C33.7758 31.1621 33.7192 30.9747 33.6342 30.814C33.5492 30.6533 32.8408 29.0197 32.5575 28.3502C32.2742 27.7074 31.9767 27.7878 31.7642 27.7744H31.0842C30.8433 27.7744 30.475 27.8547 30.1492 28.1895C29.8375 28.5242 28.9308 29.3277 28.9308 30.9613C28.9308 32.5949 30.1917 34.175 30.3617 34.3892C30.5317 34.6169 32.8408 37.9645 36.3542 39.3973C37.19 39.7454 37.8417 39.9463 38.3517 40.0936C39.1875 40.348 39.9525 40.3078 40.5617 40.2275C41.2417 40.1337 42.6442 39.424 42.9275 38.6474C43.225 37.8707 43.225 37.2146 43.1258 37.0673C43.0267 36.92 42.8142 36.8531 42.46 36.6924Z" fill="#F8F8F8"/>
</svg>
